<svg width="381" height="348" viewBox="0 0 381 348" fill="none" xmlns="http://www.w3.org/2000/svg">
<g filter="url(#filter0_b_877_14672)">
<rect x="23.0664" y="140.625" width="344.889" height="68.6471" rx="34.3235" fill="black"/>
<rect x="23.4799" y="141.039" width="344.062" height="67.82" rx="33.91" stroke="#616161" stroke-opacity="0.2" stroke-width="0.827073"/>
</g>
<g filter="url(#filter1_bd_877_14672)">
<rect x="28.4414" y="145.588" width="334.137" height="57.8951" rx="28.9476" fill="#616161" fill-opacity="0.13" shape-rendering="crispEdges"/>
<g filter="url(#filter2_bd_877_14672)">
<circle cx="61.5258" cy="174.536" r="16.5415" fill="black"/>
<circle cx="61.5258" cy="174.536" r="16.1279" stroke="url(#paint0_linear_877_14672)" stroke-opacity="0.4" stroke-width="0.827073"/>
</g>
<path d="M88.7437 174.535C88.7437 175.753 89.7311 176.741 90.9492 176.741C92.1673 176.741 93.1547 175.753 93.1547 174.535C93.1547 173.317 92.1673 172.33 90.9492 172.33C89.7311 172.33 88.7437 173.317 88.7437 174.535ZM121.716 174.828C121.877 174.666 121.877 174.404 121.716 174.243L119.084 171.611C118.922 171.45 118.661 171.45 118.499 171.611C118.338 171.773 118.338 172.034 118.499 172.196L120.838 174.535L118.499 176.874C118.338 177.036 118.338 177.298 118.499 177.459C118.661 177.621 118.922 177.621 119.084 177.459L121.716 174.828ZM90.9492 174.949H121.423V174.122H90.9492V174.949Z" fill="#616161" fill-opacity="0.4"/>
<g filter="url(#filter3_bd_877_14672)">
<circle cx="150.85" cy="174.536" r="16.5415" fill="black"/>
<circle cx="150.85" cy="174.536" r="16.1279" stroke="url(#paint1_linear_877_14672)" stroke-opacity="0.4" stroke-width="0.827073"/>
</g>
<path d="M178.068 174.535C178.068 175.753 179.055 176.741 180.273 176.741C181.492 176.741 182.479 175.753 182.479 174.535C182.479 173.317 181.492 172.33 180.273 172.33C179.055 172.33 178.068 173.317 178.068 174.535ZM211.04 174.828C211.201 174.666 211.201 174.404 211.04 174.243L208.408 171.611C208.247 171.45 207.985 171.45 207.823 171.611C207.662 171.773 207.662 172.034 207.823 172.196L210.163 174.535L207.823 176.874C207.662 177.036 207.662 177.298 207.823 177.459C207.985 177.621 208.247 177.621 208.408 177.459L211.04 174.828ZM180.273 174.949H210.747V174.122H180.273V174.949Z" fill="#616161" fill-opacity="0.4"/>
<g filter="url(#filter4_bd_877_14672)">
<circle cx="240.17" cy="174.536" r="16.5415" fill="black"/>
<circle cx="240.17" cy="174.536" r="16.1279" stroke="url(#paint2_linear_877_14672)" stroke-opacity="0.4" stroke-width="0.827073"/>
</g>
<path d="M267.392 174.535C267.392 175.753 268.38 176.741 269.598 176.741C270.816 176.741 271.803 175.753 271.803 174.535C271.803 173.317 270.816 172.33 269.598 172.33C268.38 172.33 267.392 173.317 267.392 174.535ZM300.364 174.828C300.526 174.666 300.526 174.404 300.364 174.243L297.732 171.611C297.571 171.45 297.309 171.45 297.147 171.611C296.986 171.773 296.986 172.034 297.147 172.196L299.487 174.535L297.147 176.874C296.986 177.036 296.986 177.298 297.147 177.459C297.309 177.621 297.571 177.621 297.732 177.459L300.364 174.828ZM269.598 174.949H300.072V174.122H269.598V174.949Z" fill="#616161" fill-opacity="0.4"/>
<rect x="28.8549" y="146.001" width="333.31" height="57.068" rx="28.534" stroke="url(#paint3_linear_877_14672)" stroke-opacity="0.4" stroke-width="0.827073" shape-rendering="crispEdges"/>
</g>
<g filter="url(#filter5_d_877_14672)">
<circle cx="329.495" cy="174.536" r="16.5415" fill="#FB8E23"/>
</g>
<defs>
<filter id="filter0_b_877_14672" x="8.16024" y="125.719" width="374.703" height="98.4588" filterUnits="userSpaceOnUse" color-interpolation-filters="sRGB">
<feFlood flood-opacity="0" result="BackgroundImageFix"/>
<feGaussianBlur in="BackgroundImageFix" stdDeviation="7.45308"/>
<feComposite in2="SourceAlpha" operator="in" result="effect1_backgroundBlur_877_14672"/>
<feBlend mode="normal" in="SourceGraphic" in2="effect1_backgroundBlur_877_14672" result="shape"/>
</filter>
<filter id="filter1_bd_877_14672" x="24.829" y="142.28" width="341.362" height="68.4276" filterUnits="userSpaceOnUse" color-interpolation-filters="sRGB">
<feFlood flood-opacity="0" result="BackgroundImageFix"/>
<feGaussianBlur in="BackgroundImageFix" stdDeviation="1.65415"/>
<feComposite in2="SourceAlpha" operator="in" result="effect1_backgroundBlur_877_14672"/>
<feColorMatrix in="SourceAlpha" type="matrix" values="0 0 0 0 0 0 0 0 0 0 0 0 0 0 0 0 0 0 127 0" result="hardAlpha"/>
<feOffset dy="3.61241"/>
<feGaussianBlur stdDeviation="1.8062"/>
<feComposite in2="hardAlpha" operator="out"/>
<feColorMatrix type="matrix" values="0 0 0 0 0 0 0 0 0 0 0 0 0 0 0 0 0 0 0.25 0"/>
<feBlend mode="normal" in2="effect1_backgroundBlur_877_14672" result="effect2_dropShadow_877_14672"/>
<feBlend mode="normal" in="SourceGraphic" in2="effect2_dropShadow_877_14672" result="shape"/>
</filter>
<filter id="filter2_bd_877_14672" x="41.372" y="154.686" width="40.3069" height="43.6151" filterUnits="userSpaceOnUse" color-interpolation-filters="sRGB">
<feFlood flood-opacity="0" result="BackgroundImageFix"/>
<feGaussianBlur in="BackgroundImageFix" stdDeviation="1.65415"/>
<feComposite in2="SourceAlpha" operator="in" result="effect1_backgroundBlur_877_14672"/>
<feColorMatrix in="SourceAlpha" type="matrix" values="0 0 0 0 0 0 0 0 0 0 0 0 0 0 0 0 0 0 127 0" result="hardAlpha"/>
<feOffset dy="3.61241"/>
<feGaussianBlur stdDeviation="1.8062"/>
<feComposite in2="hardAlpha" operator="out"/>
<feColorMatrix type="matrix" values="0 0 0 0 0 0 0 0 0 0 0 0 0 0 0 0 0 0 0.25 0"/>
<feBlend mode="normal" in2="effect1_backgroundBlur_877_14672" result="effect2_dropShadow_877_14672"/>
<feBlend mode="normal" in="SourceGraphic" in2="effect2_dropShadow_877_14672" result="shape"/>
</filter>
<filter id="filter3_bd_877_14672" x="130.696" y="154.686" width="40.3069" height="43.6151" filterUnits="userSpaceOnUse" color-interpolation-filters="sRGB">
<feFlood flood-opacity="0" result="BackgroundImageFix"/>
<feGaussianBlur in="BackgroundImageFix" stdDeviation="1.65415"/>
<feComposite in2="SourceAlpha" operator="in" result="effect1_backgroundBlur_877_14672"/>
<feColorMatrix in="SourceAlpha" type="matrix" values="0 0 0 0 0 0 0 0 0 0 0 0 0 0 0 0 0 0 127 0" result="hardAlpha"/>
<feOffset dy="3.61241"/>
<feGaussianBlur stdDeviation="1.8062"/>
<feComposite in2="hardAlpha" operator="out"/>
<feColorMatrix type="matrix" values="0 0 0 0 0 0 0 0 0 0 0 0 0 0 0 0 0 0 0.25 0"/>
<feBlend mode="normal" in2="effect1_backgroundBlur_877_14672" result="effect2_dropShadow_877_14672"/>
<feBlend mode="normal" in="SourceGraphic" in2="effect2_dropShadow_877_14672" result="shape"/>
</filter>
<filter id="filter4_bd_877_14672" x="220.016" y="154.686" width="40.3069" height="43.6151" filterUnits="userSpaceOnUse" color-interpolation-filters="sRGB">
<feFlood flood-opacity="0" result="BackgroundImageFix"/>
<feGaussianBlur in="BackgroundImageFix" stdDeviation="1.65415"/>
<feComposite in2="SourceAlpha" operator="in" result="effect1_backgroundBlur_877_14672"/>
<feColorMatrix in="SourceAlpha" type="matrix" values="0 0 0 0 0 0 0 0 0 0 0 0 0 0 0 0 0 0 127 0" result="hardAlpha"/>
<feOffset dy="3.61241"/>
<feGaussianBlur stdDeviation="1.8062"/>
<feComposite in2="hardAlpha" operator="out"/>
<feColorMatrix type="matrix" values="0 0 0 0 0 0 0 0 0 0 0 0 0 0 0 0 0 0 0.25 0"/>
<feBlend mode="normal" in2="effect1_backgroundBlur_877_14672" result="effect2_dropShadow_877_14672"/>
<feBlend mode="normal" in="SourceGraphic" in2="effect2_dropShadow_877_14672" result="shape"/>
</filter>
<filter id="filter5_d_877_14672" x="278.953" y="127.994" width="101.082" height="101.082" filterUnits="userSpaceOnUse" color-interpolation-filters="sRGB">
<feFlood flood-opacity="0" result="BackgroundImageFix"/>
<feColorMatrix in="SourceAlpha" type="matrix" values="0 0 0 0 0 0 0 0 0 0 0 0 0 0 0 0 0 0 127 0" result="hardAlpha"/>
<feOffset dy="4"/>
<feGaussianBlur stdDeviation="17"/>
<feComposite in2="hardAlpha" operator="out"/>
<feColorMatrix type="matrix" values="0 0 0 0 0.984314 0 0 0 0 0.556863 0 0 0 0 0.137255 0 0 0 1 0"/>
<feBlend mode="normal" in2="BackgroundImageFix" result="effect1_dropShadow_877_14672"/>
<feBlend mode="normal" in="SourceGraphic" in2="effect1_dropShadow_877_14672" result="shape"/>
</filter>
<linearGradient id="paint0_linear_877_14672" x1="61.5258" y1="157.994" x2="61.5258" y2="191.077" gradientUnits="userSpaceOnUse">
<stop stop-color="white"/>
<stop offset="1" stop-color="white" stop-opacity="0"/>
</linearGradient>
<linearGradient id="paint1_linear_877_14672" x1="150.85" y1="157.994" x2="150.85" y2="191.077" gradientUnits="userSpaceOnUse">
<stop stop-color="white"/>
<stop offset="1" stop-color="white" stop-opacity="0"/>
</linearGradient>
<linearGradient id="paint2_linear_877_14672" x1="240.17" y1="157.994" x2="240.17" y2="191.077" gradientUnits="userSpaceOnUse">
<stop stop-color="white"/>
<stop offset="1" stop-color="white" stop-opacity="0"/>
</linearGradient>
<linearGradient id="paint3_linear_877_14672" x1="195.51" y1="145.588" x2="195.51" y2="203.483" gradientUnits="userSpaceOnUse">
<stop stop-color="white"/>
<stop offset="1" stop-color="white" stop-opacity="0"/>
</linearGradient>
</defs>
</svg>
