<svg width="375" height="348" viewBox="0 0 375 348" fill="none" xmlns="http://www.w3.org/2000/svg">
<g filter="url(#filter0_b_877_14684)">
<rect x="41.0273" y="211.424" width="168.723" height="62.8691" rx="31.4346" transform="rotate(-45 41.0273 211.424)" fill="black"/>
<rect x="41.6122" y="211.424" width="167.896" height="62.042" rx="31.021" transform="rotate(-45 41.6122 211.424)" stroke="#616161" stroke-opacity="0.2" stroke-width="0.827073"/>
</g>
<g filter="url(#filter1_bd_877_14684)">
<rect x="46.9648" y="211.629" width="160.107" height="54.6724" rx="27.3362" transform="rotate(-45 46.9648 211.629)" fill="#616161" fill-opacity="0.13" shape-rendering="crispEdges"/>
<rect x="47.5497" y="211.629" width="159.28" height="53.8454" rx="26.9227" transform="rotate(-45 47.5497 211.629)" stroke="url(#paint0_linear_877_14684)" stroke-opacity="0.4" stroke-width="0.827073" shape-rendering="crispEdges"/>
</g>
<g filter="url(#filter2_d_877_14684)">
<circle cx="86.2423" cy="211.633" r="16.8401" transform="rotate(-3.3136 86.2423 211.633)" fill="#FB8E23"/>
</g>
<g filter="url(#filter3_bd_877_14684)">
<circle cx="161.121" cy="136.442" r="16.8401" transform="rotate(-3.3136 161.121 136.442)" fill="black"/>
<circle cx="161.121" cy="136.442" r="16.4265" transform="rotate(-3.3136 161.121 136.442)" stroke="url(#paint1_linear_877_14684)" stroke-opacity="0.4" stroke-width="0.827073"/>
</g>
<g filter="url(#filter4_bd_877_14684)">
<circle cx="174.977" cy="211.633" r="16.8401" transform="rotate(-3.3136 174.977 211.633)" fill="black"/>
<circle cx="174.977" cy="211.633" r="16.4265" transform="rotate(-3.3136 174.977 211.633)" stroke="url(#paint2_linear_877_14684)" stroke-opacity="0.4" stroke-width="0.827073"/>
</g>
<path d="M102.468 193.149C103.329 194.011 104.726 194.011 105.587 193.149C106.448 192.288 106.448 190.892 105.587 190.03C104.726 189.169 103.329 189.169 102.468 190.03C101.606 190.892 101.606 192.288 102.468 193.149ZM143.749 152.281C143.749 152.053 143.564 151.868 143.336 151.868H139.614C139.386 151.868 139.201 152.053 139.201 152.281C139.201 152.51 139.386 152.695 139.614 152.695H142.922V156.003C142.922 156.232 143.108 156.417 143.336 156.417C143.564 156.417 143.749 156.232 143.749 156.003V152.281ZM104.32 191.882L143.628 152.574L143.043 151.989L103.735 191.297L104.32 191.882Z" fill="#616161" fill-opacity="0.4"/>
<g filter="url(#filter5_bd_877_14684)">
<circle cx="243.481" cy="132.239" r="16.8401" transform="rotate(-3.3136 243.481 132.239)" fill="black"/>
<circle cx="243.481" cy="132.239" r="16.4265" transform="rotate(-3.3136 243.481 132.239)" stroke="url(#paint3_linear_877_14684)" stroke-opacity="0.4" stroke-width="0.827073"/>
</g>
<g filter="url(#filter6_bd_877_14684)">
<circle cx="308.91" cy="211.633" r="16.8401" transform="rotate(-3.3136 308.91 211.633)" fill="black"/>
<circle cx="308.91" cy="211.633" r="16.4265" transform="rotate(-3.3136 308.91 211.633)" stroke="url(#paint4_linear_877_14684)" stroke-opacity="0.4" stroke-width="0.827073"/>
</g>
<path d="M189.209 193.184C190.119 193.994 191.513 193.914 192.323 193.004C193.133 192.094 193.052 190.7 192.143 189.89C191.233 189.08 189.839 189.161 189.029 190.07C188.219 190.98 188.299 192.374 189.209 193.184ZM228.059 149.998C228.046 149.77 227.851 149.596 227.623 149.609L223.907 149.824C223.679 149.838 223.505 150.033 223.518 150.261C223.531 150.489 223.727 150.663 223.955 150.65L227.258 150.459L227.449 153.762C227.462 153.99 227.658 154.164 227.886 154.151C228.114 154.137 228.288 153.942 228.275 153.714L228.059 149.998ZM190.985 191.812L227.955 150.297L227.338 149.747L190.367 191.262L190.985 191.812Z" fill="#616161" fill-opacity="0.4"/>
<path d="M259.803 148.374C260.712 147.564 262.107 147.645 262.917 148.555C263.727 149.464 263.646 150.858 262.736 151.669C261.827 152.479 260.433 152.398 259.622 151.488C258.812 150.579 258.893 149.184 259.803 148.374ZM298.653 191.56C298.64 191.788 298.444 191.962 298.216 191.949L294.501 191.734C294.273 191.721 294.099 191.525 294.112 191.297C294.125 191.069 294.321 190.895 294.549 190.908L297.851 191.1L298.043 187.797C298.056 187.569 298.251 187.395 298.479 187.408C298.707 187.421 298.881 187.617 298.868 187.845L298.653 191.56ZM261.578 149.746L298.549 191.261L297.931 191.811L260.961 150.297L261.578 149.746Z" fill="#1C1C1C"/>
<defs>
<filter id="filter0_b_877_14684" x="39.1407" y="90.2325" width="167.531" height="167.531" filterUnits="userSpaceOnUse" color-interpolation-filters="sRGB">
<feFlood flood-opacity="0" result="BackgroundImageFix"/>
<feGaussianBlur in="BackgroundImageFix" stdDeviation="7.45308"/>
<feComposite in2="SourceAlpha" operator="in" result="effect1_backgroundBlur_877_14684"/>
<feBlend mode="normal" in="SourceGraphic" in2="effect1_backgroundBlur_877_14684" result="shape"/>
</filter>
<filter id="filter1_bd_877_14684" x="54.6767" y="106.43" width="136.451" height="139.76" filterUnits="userSpaceOnUse" color-interpolation-filters="sRGB">
<feFlood flood-opacity="0" result="BackgroundImageFix"/>
<feGaussianBlur in="BackgroundImageFix" stdDeviation="1.65415"/>
<feComposite in2="SourceAlpha" operator="in" result="effect1_backgroundBlur_877_14684"/>
<feColorMatrix in="SourceAlpha" type="matrix" values="0 0 0 0 0 0 0 0 0 0 0 0 0 0 0 0 0 0 127 0" result="hardAlpha"/>
<feOffset dy="3.61241"/>
<feGaussianBlur stdDeviation="1.8062"/>
<feComposite in2="hardAlpha" operator="out"/>
<feColorMatrix type="matrix" values="0 0 0 0 0 0 0 0 0 0 0 0 0 0 0 0 0 0 0.25 0"/>
<feBlend mode="normal" in2="effect1_backgroundBlur_877_14684" result="effect2_dropShadow_877_14684"/>
<feBlend mode="normal" in="SourceGraphic" in2="effect2_dropShadow_877_14684" result="shape"/>
</filter>
<filter id="filter2_d_877_14684" x="35.4023" y="164.793" width="101.68" height="101.682" filterUnits="userSpaceOnUse" color-interpolation-filters="sRGB">
<feFlood flood-opacity="0" result="BackgroundImageFix"/>
<feColorMatrix in="SourceAlpha" type="matrix" values="0 0 0 0 0 0 0 0 0 0 0 0 0 0 0 0 0 0 127 0" result="hardAlpha"/>
<feOffset dy="4"/>
<feGaussianBlur stdDeviation="17"/>
<feComposite in2="hardAlpha" operator="out"/>
<feColorMatrix type="matrix" values="0 0 0 0 0.984314 0 0 0 0 0.556863 0 0 0 0 0.137255 0 0 0 1 0"/>
<feBlend mode="normal" in2="BackgroundImageFix" result="effect1_dropShadow_877_14684"/>
<feBlend mode="normal" in="SourceGraphic" in2="effect1_dropShadow_877_14684" result="shape"/>
</filter>
<filter id="filter3_bd_877_14684" x="140.669" y="116.293" width="40.9045" height="44.2148" filterUnits="userSpaceOnUse" color-interpolation-filters="sRGB">
<feFlood flood-opacity="0" result="BackgroundImageFix"/>
<feGaussianBlur in="BackgroundImageFix" stdDeviation="1.65415"/>
<feComposite in2="SourceAlpha" operator="in" result="effect1_backgroundBlur_877_14684"/>
<feColorMatrix in="SourceAlpha" type="matrix" values="0 0 0 0 0 0 0 0 0 0 0 0 0 0 0 0 0 0 127 0" result="hardAlpha"/>
<feOffset dy="3.61241"/>
<feGaussianBlur stdDeviation="1.8062"/>
<feComposite in2="hardAlpha" operator="out"/>
<feColorMatrix type="matrix" values="0 0 0 0 0 0 0 0 0 0 0 0 0 0 0 0 0 0 0.25 0"/>
<feBlend mode="normal" in2="effect1_backgroundBlur_877_14684" result="effect2_dropShadow_877_14684"/>
<feBlend mode="normal" in="SourceGraphic" in2="effect2_dropShadow_877_14684" result="shape"/>
</filter>
<filter id="filter4_bd_877_14684" x="154.524" y="191.485" width="40.9045" height="44.2148" filterUnits="userSpaceOnUse" color-interpolation-filters="sRGB">
<feFlood flood-opacity="0" result="BackgroundImageFix"/>
<feGaussianBlur in="BackgroundImageFix" stdDeviation="1.65415"/>
<feComposite in2="SourceAlpha" operator="in" result="effect1_backgroundBlur_877_14684"/>
<feColorMatrix in="SourceAlpha" type="matrix" values="0 0 0 0 0 0 0 0 0 0 0 0 0 0 0 0 0 0 127 0" result="hardAlpha"/>
<feOffset dy="3.61241"/>
<feGaussianBlur stdDeviation="1.8062"/>
<feComposite in2="hardAlpha" operator="out"/>
<feColorMatrix type="matrix" values="0 0 0 0 0 0 0 0 0 0 0 0 0 0 0 0 0 0 0.25 0"/>
<feBlend mode="normal" in2="effect1_backgroundBlur_877_14684" result="effect2_dropShadow_877_14684"/>
<feBlend mode="normal" in="SourceGraphic" in2="effect2_dropShadow_877_14684" result="shape"/>
</filter>
<filter id="filter5_bd_877_14684" x="223.028" y="112.09" width="40.9045" height="44.2148" filterUnits="userSpaceOnUse" color-interpolation-filters="sRGB">
<feFlood flood-opacity="0" result="BackgroundImageFix"/>
<feGaussianBlur in="BackgroundImageFix" stdDeviation="1.65415"/>
<feComposite in2="SourceAlpha" operator="in" result="effect1_backgroundBlur_877_14684"/>
<feColorMatrix in="SourceAlpha" type="matrix" values="0 0 0 0 0 0 0 0 0 0 0 0 0 0 0 0 0 0 127 0" result="hardAlpha"/>
<feOffset dy="3.61241"/>
<feGaussianBlur stdDeviation="1.8062"/>
<feComposite in2="hardAlpha" operator="out"/>
<feColorMatrix type="matrix" values="0 0 0 0 0 0 0 0 0 0 0 0 0 0 0 0 0 0 0.25 0"/>
<feBlend mode="normal" in2="effect1_backgroundBlur_877_14684" result="effect2_dropShadow_877_14684"/>
<feBlend mode="normal" in="SourceGraphic" in2="effect2_dropShadow_877_14684" result="shape"/>
</filter>
<filter id="filter6_bd_877_14684" x="288.458" y="191.485" width="40.9045" height="44.2148" filterUnits="userSpaceOnUse" color-interpolation-filters="sRGB">
<feFlood flood-opacity="0" result="BackgroundImageFix"/>
<feGaussianBlur in="BackgroundImageFix" stdDeviation="1.65415"/>
<feComposite in2="SourceAlpha" operator="in" result="effect1_backgroundBlur_877_14684"/>
<feColorMatrix in="SourceAlpha" type="matrix" values="0 0 0 0 0 0 0 0 0 0 0 0 0 0 0 0 0 0 127 0" result="hardAlpha"/>
<feOffset dy="3.61241"/>
<feGaussianBlur stdDeviation="1.8062"/>
<feComposite in2="hardAlpha" operator="out"/>
<feColorMatrix type="matrix" values="0 0 0 0 0 0 0 0 0 0 0 0 0 0 0 0 0 0 0.25 0"/>
<feBlend mode="normal" in2="effect1_backgroundBlur_877_14684" result="effect2_dropShadow_877_14684"/>
<feBlend mode="normal" in="SourceGraphic" in2="effect2_dropShadow_877_14684" result="shape"/>
</filter>
<linearGradient id="paint0_linear_877_14684" x1="127.018" y1="211.629" x2="127.018" y2="266.301" gradientUnits="userSpaceOnUse">
<stop stop-color="white"/>
<stop offset="1" stop-color="white" stop-opacity="0"/>
</linearGradient>
<linearGradient id="paint1_linear_877_14684" x1="161.121" y1="119.602" x2="161.121" y2="153.282" gradientUnits="userSpaceOnUse">
<stop stop-color="white"/>
<stop offset="1" stop-color="white" stop-opacity="0"/>
</linearGradient>
<linearGradient id="paint2_linear_877_14684" x1="174.977" y1="194.793" x2="174.977" y2="228.474" gradientUnits="userSpaceOnUse">
<stop stop-color="white"/>
<stop offset="1" stop-color="white" stop-opacity="0"/>
</linearGradient>
<linearGradient id="paint3_linear_877_14684" x1="243.481" y1="115.399" x2="243.481" y2="149.079" gradientUnits="userSpaceOnUse">
<stop stop-color="white"/>
<stop offset="1" stop-color="white" stop-opacity="0"/>
</linearGradient>
<linearGradient id="paint4_linear_877_14684" x1="308.91" y1="194.793" x2="308.91" y2="228.474" gradientUnits="userSpaceOnUse">
<stop stop-color="white"/>
<stop offset="1" stop-color="white" stop-opacity="0"/>
</linearGradient>
</defs>
</svg>
