<svg width="600" height="601" viewBox="0 0 600 601" fill="none" xmlns="http://www.w3.org/2000/svg">
<g filter="url(#filter0_d_797_11214)">
<rect x="136" y="148.727" width="148" height="148" rx="8" fill="white"/>
<g filter="url(#filter1_b_797_11214)">
<path d="M227.984 204.332L190.91 215.703C190.214 215.912 189.605 216.339 189.17 216.92C188.736 217.502 188.5 218.208 188.496 218.934V226.514C188.499 227.241 188.735 227.947 189.17 228.529C189.604 229.111 190.214 229.538 190.91 229.747L196.92 231.589L210.397 235.723L227.976 241.118C228.285 241.209 228.605 241.255 228.928 241.255C229.821 241.255 230.678 240.9 231.31 240.268C231.942 239.636 232.297 238.779 232.297 237.886V207.562C232.296 207.04 232.174 206.524 231.94 206.057C231.706 205.59 231.366 205.183 230.947 204.87C230.529 204.556 230.044 204.345 229.529 204.251C229.015 204.158 228.486 204.186 227.984 204.332Z" fill="url(#paint0_linear_797_11214)"/>
</g>
<g filter="url(#filter2_b_797_11214)">
<path d="M210.396 209.727L190.909 215.703C190.214 215.912 189.604 216.339 189.17 216.921C188.735 217.502 188.499 218.208 188.496 218.934V226.515C188.499 227.241 188.735 227.947 189.169 228.529C189.604 229.111 190.214 229.538 190.909 229.747L196.919 231.59V237.886C196.919 238.779 197.274 239.636 197.906 240.268C198.538 240.9 199.395 241.255 200.289 241.255H207.027C207.921 241.255 208.778 240.9 209.409 240.268C210.041 239.636 210.396 238.779 210.396 237.886V209.727Z" fill="url(#paint1_linear_797_11214)" fill-opacity="0.81"/>
</g>
<rect x="135.5" y="148.227" width="149" height="149" rx="8.5" stroke="#E7E7E7"/>
</g>
<g filter="url(#filter3_d_797_11214)">
<rect x="304" y="148.727" width="148" height="148" rx="8" fill="white"/>
<g filter="url(#filter4_b_797_11214)">
<path fill-rule="evenodd" clip-rule="evenodd" d="M354.258 208.974C354.448 208.023 355.191 207.28 356.142 207.09L371.591 204.008C371.863 203.955 372.144 203.969 372.408 204.05C372.673 204.131 372.914 204.276 373.11 204.472L395.128 226.49C395.286 226.645 395.413 226.83 395.499 227.035C395.585 227.24 395.629 227.46 395.629 227.682C395.629 227.904 395.585 228.123 395.499 228.328C395.413 228.533 395.286 228.718 395.128 228.873L376.041 247.96C375.886 248.118 375.701 248.245 375.496 248.331C375.291 248.417 375.072 248.461 374.85 248.461C374.627 248.461 374.408 248.417 374.203 248.331C373.998 248.245 373.813 248.118 373.658 247.96L351.64 225.942C351.444 225.746 351.299 225.505 351.218 225.24C351.137 224.976 351.123 224.695 351.176 224.423L354.258 208.974ZM365.96 216.262C365.96 217.659 364.827 218.792 363.429 218.792C362.032 218.792 360.899 217.659 360.899 216.262C360.899 214.864 362.032 213.731 363.429 213.731C364.827 213.731 365.96 214.864 365.96 216.262Z" fill="url(#paint2_radial_797_11214)"/>
</g>
<g filter="url(#filter5_b_797_11214)">
<path fill-rule="evenodd" clip-rule="evenodd" d="M379.099 215.783C379.352 214.515 380.343 213.524 381.611 213.271L390.851 211.427C391.032 211.392 391.219 211.401 391.395 211.455C391.572 211.509 391.732 211.606 391.862 211.736L406.525 226.399C406.631 226.503 406.715 226.626 406.772 226.762C406.83 226.899 406.859 227.045 406.859 227.193C406.859 227.341 406.83 227.487 406.772 227.623C406.715 227.76 406.631 227.883 406.525 227.986L393.814 240.697C393.711 240.803 393.588 240.887 393.451 240.944C393.315 241.002 393.169 241.031 393.021 241.031C392.873 241.031 392.727 241.002 392.59 240.944C392.454 240.887 392.331 240.803 392.227 240.697L377.564 226.034C377.434 225.904 377.337 225.743 377.283 225.567C377.23 225.391 377.22 225.204 377.255 225.023L379.099 215.783ZM387.101 219.588C387.101 220.518 386.346 221.273 385.416 221.273C384.485 221.273 383.73 220.518 383.73 219.588C383.73 218.657 384.485 217.902 385.416 217.902C386.346 217.902 387.101 218.657 387.101 219.588Z" fill="#FEED9A" fill-opacity="0.74"/>
</g>
<rect x="303.5" y="148.227" width="149" height="149" rx="8.5" stroke="#E7E7E7"/>
</g>
<g filter="url(#filter6_d_797_11214)">
<rect x="136" y="316.727" width="148" height="148" rx="8" fill="white"/>
<path fill-rule="evenodd" clip-rule="evenodd" d="M200.664 391.448C205.548 391.427 209.5 387.461 209.5 382.572C209.5 377.669 205.526 373.695 200.624 373.695C195.722 373.695 191.748 377.669 191.748 382.572C191.748 387.46 195.7 391.426 200.584 391.448C198.849 391.453 197.131 391.826 195.528 392.546C193.913 393.271 192.445 394.333 191.208 395.673C189.972 397.012 188.991 398.602 188.322 400.352C187.747 401.855 187.412 403.451 187.329 405.072C187.307 405.513 187.667 405.872 188.109 405.872L200.623 405.872H213.138C213.58 405.872 213.94 405.513 213.917 405.072C213.834 403.451 213.499 401.855 212.924 400.352C212.255 398.602 211.274 397.012 210.038 395.673C208.802 394.333 207.334 393.271 205.718 392.546C204.115 391.827 202.398 391.454 200.664 391.448Z" fill="url(#paint3_radial_797_11214)"/>
<g filter="url(#filter7_b_797_11214)">
<path fill-rule="evenodd" clip-rule="evenodd" d="M216.979 392.711C223.034 392.711 227.943 387.802 227.943 381.746C227.943 375.69 223.034 370.781 216.979 370.781C210.923 370.781 206.014 375.69 206.014 381.746C206.014 387.802 210.923 392.711 216.979 392.711ZM232.175 403.711C232.813 405.379 233.212 407.139 233.361 408.931C233.434 409.812 232.711 410.53 231.827 410.53H216.98H202.133C201.249 410.53 200.526 409.812 200.599 408.931C200.748 407.139 201.147 405.379 201.785 403.711C202.611 401.549 203.823 399.585 205.35 397.93C206.877 396.276 208.69 394.963 210.686 394.068C212.681 393.173 214.82 392.712 216.98 392.712C219.14 392.712 221.278 393.173 223.274 394.068C225.269 394.963 227.082 396.276 228.61 397.93C230.137 399.585 231.348 401.549 232.175 403.711Z" fill="#FFBD66" fill-opacity="0.47"/>
</g>
<rect x="135.5" y="316.227" width="149" height="149" rx="8.5" stroke="#E7E7E7"/>
</g>
<g filter="url(#filter8_dd_797_11214)">
<rect x="304" y="316.727" width="148" height="148" rx="8" fill="url(#paint4_linear_797_11214)" shape-rendering="crispEdges"/>
<rect x="307.5" y="320.5" width="141" height="141" rx="4.5" fill="white"/>
<rect x="307.5" y="320.5" width="141" height="141" rx="4.5" stroke="url(#paint5_linear_797_11214)"/>
<path d="M391.539 390.727C391.539 390.727 376.947 407.187 367.499 407.187C358.05 407.187 350.391 399.817 350.391 390.727C350.391 381.637 358.05 374.268 367.499 374.268C376.947 374.268 391.539 390.727 391.539 390.727Z" fill="url(#paint6_linear_797_11214)"/>
<g filter="url(#filter9_b_797_11214)">
<path d="M366.859 390.727C366.859 390.727 381.451 407.187 390.9 407.187C400.348 407.187 408.008 399.817 408.008 390.727C408.008 381.637 400.348 374.268 390.9 374.268C381.451 374.268 366.859 390.727 366.859 390.727Z" fill="#9ECBFA" fill-opacity="0.59"/>
</g>
<rect x="303.5" y="316.227" width="149" height="149" rx="8.5" stroke="url(#paint7_linear_797_11214)" shape-rendering="crispEdges"/>
</g>
<defs>
<filter id="filter0_d_797_11214" x="135" y="147.727" width="150" height="152" filterUnits="userSpaceOnUse" color-interpolation-filters="sRGB">
<feFlood flood-opacity="0" result="BackgroundImageFix"/>
<feColorMatrix in="SourceAlpha" type="matrix" values="0 0 0 0 0 0 0 0 0 0 0 0 0 0 0 0 0 0 127 0" result="hardAlpha"/>
<feOffset dy="2"/>
<feColorMatrix type="matrix" values="0 0 0 0 0.929412 0 0 0 0 0.929412 0 0 0 0 0.929412 0 0 0 0.4 0"/>
<feBlend mode="normal" in2="BackgroundImageFix" result="effect1_dropShadow_797_11214"/>
<feBlend mode="normal" in="SourceGraphic" in2="effect1_dropShadow_797_11214" result="shape"/>
</filter>
<filter id="filter1_b_797_11214" x="187.41" y="203.111" width="45.9729" height="39.2307" filterUnits="userSpaceOnUse" color-interpolation-filters="sRGB">
<feFlood flood-opacity="0" result="BackgroundImageFix"/>
<feGaussianBlur in="BackgroundImageFix" stdDeviation="0.543036"/>
<feComposite in2="SourceAlpha" operator="in" result="effect1_backgroundBlur_797_11214"/>
<feBlend mode="normal" in="SourceGraphic" in2="effect1_backgroundBlur_797_11214" result="shape"/>
</filter>
<filter id="filter2_b_797_11214" x="185.808" y="207.039" width="27.2744" height="36.9053" filterUnits="userSpaceOnUse" color-interpolation-filters="sRGB">
<feFlood flood-opacity="0" result="BackgroundImageFix"/>
<feGaussianBlur in="BackgroundImageFix" stdDeviation="1.344"/>
<feComposite in2="SourceAlpha" operator="in" result="effect1_backgroundBlur_797_11214"/>
<feBlend mode="normal" in="SourceGraphic" in2="effect1_backgroundBlur_797_11214" result="shape"/>
</filter>
<filter id="filter3_d_797_11214" x="303" y="147.727" width="150" height="152" filterUnits="userSpaceOnUse" color-interpolation-filters="sRGB">
<feFlood flood-opacity="0" result="BackgroundImageFix"/>
<feColorMatrix in="SourceAlpha" type="matrix" values="0 0 0 0 0 0 0 0 0 0 0 0 0 0 0 0 0 0 127 0" result="hardAlpha"/>
<feOffset dy="2"/>
<feColorMatrix type="matrix" values="0 0 0 0 0.929412 0 0 0 0 0.929412 0 0 0 0 0.929412 0 0 0 0.4 0"/>
<feBlend mode="normal" in2="BackgroundImageFix" result="effect1_dropShadow_797_11214"/>
<feBlend mode="normal" in="SourceGraphic" in2="effect1_dropShadow_797_11214" result="shape"/>
</filter>
<filter id="filter4_b_797_11214" x="340.407" y="193.239" width="65.96" height="65.96" filterUnits="userSpaceOnUse" color-interpolation-filters="sRGB">
<feFlood flood-opacity="0" result="BackgroundImageFix"/>
<feGaussianBlur in="BackgroundImageFix" stdDeviation="5.3689"/>
<feComposite in2="SourceAlpha" operator="in" result="effect1_backgroundBlur_797_11214"/>
<feBlend mode="normal" in="SourceGraphic" in2="effect1_backgroundBlur_797_11214" result="shape"/>
</filter>
<filter id="filter5_b_797_11214" x="366.497" y="200.668" width="51.1006" height="51.1006" filterUnits="userSpaceOnUse" color-interpolation-filters="sRGB">
<feFlood flood-opacity="0" result="BackgroundImageFix"/>
<feGaussianBlur in="BackgroundImageFix" stdDeviation="5.3689"/>
<feComposite in2="SourceAlpha" operator="in" result="effect1_backgroundBlur_797_11214"/>
<feBlend mode="normal" in="SourceGraphic" in2="effect1_backgroundBlur_797_11214" result="shape"/>
</filter>
<filter id="filter6_d_797_11214" x="135" y="315.727" width="150" height="152" filterUnits="userSpaceOnUse" color-interpolation-filters="sRGB">
<feFlood flood-opacity="0" result="BackgroundImageFix"/>
<feColorMatrix in="SourceAlpha" type="matrix" values="0 0 0 0 0 0 0 0 0 0 0 0 0 0 0 0 0 0 127 0" result="hardAlpha"/>
<feOffset dy="2"/>
<feColorMatrix type="matrix" values="0 0 0 0 0.929412 0 0 0 0 0.929412 0 0 0 0 0.929412 0 0 0 0.4 0"/>
<feBlend mode="normal" in2="BackgroundImageFix" result="effect1_dropShadow_797_11214"/>
<feBlend mode="normal" in="SourceGraphic" in2="effect1_dropShadow_797_11214" result="shape"/>
</filter>
<filter id="filter7_b_797_11214" x="186.277" y="356.464" width="61.4075" height="68.3822" filterUnits="userSpaceOnUse" color-interpolation-filters="sRGB">
<feFlood flood-opacity="0" result="BackgroundImageFix"/>
<feGaussianBlur in="BackgroundImageFix" stdDeviation="7.15853"/>
<feComposite in2="SourceAlpha" operator="in" result="effect1_backgroundBlur_797_11214"/>
<feBlend mode="normal" in="SourceGraphic" in2="effect1_backgroundBlur_797_11214" result="shape"/>
</filter>
<filter id="filter8_dd_797_11214" x="279" y="295.727" width="218" height="218" filterUnits="userSpaceOnUse" color-interpolation-filters="sRGB">
<feFlood flood-opacity="0" result="BackgroundImageFix"/>
<feColorMatrix in="SourceAlpha" type="matrix" values="0 0 0 0 0 0 0 0 0 0 0 0 0 0 0 0 0 0 127 0" result="hardAlpha"/>
<feOffset dx="10" dy="14"/>
<feGaussianBlur stdDeviation="17"/>
<feComposite in2="hardAlpha" operator="out"/>
<feColorMatrix type="matrix" values="0 0 0 0 0.290196 0 0 0 0 0.713726 0 0 0 0 1 0 0 0 0.3 0"/>
<feBlend mode="normal" in2="BackgroundImageFix" result="effect1_dropShadow_797_11214"/>
<feColorMatrix in="SourceAlpha" type="matrix" values="0 0 0 0 0 0 0 0 0 0 0 0 0 0 0 0 0 0 127 0" result="hardAlpha"/>
<feOffset dx="5" dy="4"/>
<feGaussianBlur stdDeviation="4.5"/>
<feComposite in2="hardAlpha" operator="out"/>
<feColorMatrix type="matrix" values="0 0 0 0 0.145098 0 0 0 0 0.447059 0 0 0 0 1 0 0 0 0.1 0"/>
<feBlend mode="normal" in2="effect1_dropShadow_797_11214" result="effect2_dropShadow_797_11214"/>
<feBlend mode="normal" in="SourceGraphic" in2="effect2_dropShadow_797_11214" result="shape"/>
</filter>
<filter id="filter9_b_797_11214" x="360.319" y="367.727" width="54.2301" height="46.0016" filterUnits="userSpaceOnUse" color-interpolation-filters="sRGB">
<feFlood flood-opacity="0" result="BackgroundImageFix"/>
<feGaussianBlur in="BackgroundImageFix" stdDeviation="3.27042"/>
<feComposite in2="SourceAlpha" operator="in" result="effect1_backgroundBlur_797_11214"/>
<feBlend mode="normal" in="SourceGraphic" in2="effect1_backgroundBlur_797_11214" result="shape"/>
</filter>
<linearGradient id="paint0_linear_797_11214" x1="210.338" y1="206.957" x2="210.338" y2="254.915" gradientUnits="userSpaceOnUse">
<stop stop-color="#722ED1"/>
<stop offset="1" stop-color="#EFDBFF"/>
</linearGradient>
<linearGradient id="paint1_linear_797_11214" x1="199.476" y1="212.075" x2="199.476" y2="252.877" gradientUnits="userSpaceOnUse">
<stop stop-color="#B692E7"/>
<stop offset="1" stop-color="#EFDBFF"/>
</linearGradient>
<radialGradient id="paint2_radial_797_11214" cx="0" cy="0" r="1" gradientUnits="userSpaceOnUse" gradientTransform="translate(376.695 204.56) rotate(94.8852) scale(46.9706)">
<stop stop-color="#FDBB2E"/>
<stop offset="1" stop-color="#FDD82E"/>
</radialGradient>
<radialGradient id="paint3_radial_797_11214" cx="0" cy="0" r="1" gradientUnits="userSpaceOnUse" gradientTransform="translate(201.027 371.469) rotate(90.5116) scale(44.8018 37.0233)">
<stop stop-color="#FF6940"/>
<stop offset="0.117896" stop-color="#FF6A40"/>
<stop offset="0.213837" stop-color="#FF6C40"/>
<stop offset="0.2912" stop-color="#FF6F40"/>
<stop offset="0.353363" stop-color="#FF7440"/>
<stop offset="0.403704" stop-color="#FF7940"/>
<stop offset="0.4456" stop-color="#FF7F40"/>
<stop offset="0.48243" stop-color="#FF8540"/>
<stop offset="0.51757" stop-color="#FF8C40"/>
<stop offset="0.5544" stop-color="#FF9340"/>
<stop offset="0.596296" stop-color="#FF9B40"/>
<stop offset="0.646637" stop-color="#FFA240"/>
<stop offset="0.7088" stop-color="#FFAA40"/>
<stop offset="0.786163" stop-color="#FFB140"/>
<stop offset="0.882104" stop-color="#FFB840"/>
<stop offset="1" stop-color="#FFBE40"/>
</radialGradient>
<linearGradient id="paint4_linear_797_11214" x1="378" y1="316.727" x2="378" y2="464.727" gradientUnits="userSpaceOnUse">
<stop stop-color="#ECF8FF"/>
<stop offset="1" stop-color="#C8E1FC"/>
</linearGradient>
<linearGradient id="paint5_linear_797_11214" x1="378" y1="321" x2="378" y2="461" gradientUnits="userSpaceOnUse">
<stop stop-color="#D1E6FB"/>
<stop offset="1" stop-color="#A7D1FC"/>
</linearGradient>
<linearGradient id="paint6_linear_797_11214" x1="366.513" y1="416.83" x2="366.513" y2="369.818" gradientUnits="userSpaceOnUse">
<stop stop-color="#37C3FF"/>
<stop offset="0.117896" stop-color="#37C2FF"/>
<stop offset="0.213837" stop-color="#35BFFF"/>
<stop offset="0.2912" stop-color="#33BAFF"/>
<stop offset="0.353363" stop-color="#31B4FF"/>
<stop offset="0.403704" stop-color="#2DADFF"/>
<stop offset="0.4456" stop-color="#29A4FF"/>
<stop offset="0.48243" stop-color="#259AFF"/>
<stop offset="0.51757" stop-color="#2190FF"/>
<stop offset="0.5544" stop-color="#1C86FF"/>
<stop offset="0.596296" stop-color="#177BFF"/>
<stop offset="0.646637" stop-color="#1270FF"/>
<stop offset="0.7088" stop-color="#0D65FF"/>
<stop offset="0.786163" stop-color="#085AFF"/>
<stop offset="0.882104" stop-color="#0451FF"/>
<stop offset="1" stop-color="#0047FF"/>
</linearGradient>
<linearGradient id="paint7_linear_797_11214" x1="378" y1="316.727" x2="378" y2="464.727" gradientUnits="userSpaceOnUse">
<stop stop-color="#D1E6FB"/>
<stop offset="1" stop-color="#A7D1FC"/>
</linearGradient>
</defs>
</svg>
