<svg width="1157" height="245" viewBox="0 0 1157 245" fill="none" xmlns="http://www.w3.org/2000/svg">
<path d="M67.0078 167.15V49.3548H30.6328V26.7382H128.638V49.3548H92.8285V167.15H67.0078Z" fill="white"/>
<path d="M162.077 169.411C151.397 169.411 142.853 166.773 136.445 161.495C130.037 156.218 126.833 149.056 126.833 140.01C126.833 131.466 129.723 124.367 135.503 118.712C141.282 113.058 150.203 109.226 162.266 107.216L192.798 102.315V98.9229C192.798 94.5252 191.039 90.8814 187.521 87.9915C184.128 84.976 179.605 83.4682 173.951 83.4682C168.548 83.4682 163.836 84.9131 159.815 87.803C155.795 90.5673 152.842 94.2739 150.957 98.9229L130.791 89.1223C133.806 81.0809 139.335 74.61 147.376 69.7098C155.418 64.8095 164.59 62.3594 174.893 62.3594C183.312 62.3594 190.662 63.93 196.944 67.0712C203.352 70.0867 208.378 74.3587 212.022 79.8872C215.666 85.4157 217.488 91.7609 217.488 98.9229V167.15H194.117V156.218C186.076 165.014 175.396 169.411 162.077 169.411ZM152.465 139.067C152.465 142.585 153.784 145.413 156.423 147.549C159.062 149.559 162.454 150.564 166.6 150.564C174.391 150.564 180.673 148.114 185.448 143.214C190.348 138.313 192.798 132.345 192.798 125.309V121.163L166.977 125.497C157.302 127.382 152.465 131.905 152.465 139.067Z" fill="white"/>
<path d="M290.064 208.613C278.504 208.613 268.327 205.849 259.532 200.321C250.862 194.918 244.894 187.693 241.627 178.646L264.62 169.977C266.128 174.751 269.081 178.584 273.479 181.473C278.002 184.489 283.53 185.997 290.064 185.997C297.477 185.997 303.571 183.861 308.346 179.589C313.12 175.442 315.508 169.6 315.508 162.061V150.941C308.22 158.983 298.357 163.003 285.918 163.003C276.368 163.003 267.824 160.804 260.286 156.407C252.747 152.009 246.841 145.978 242.569 138.313C238.297 130.649 236.161 122.042 236.161 112.493C236.161 102.818 238.297 94.2111 242.569 86.6722C246.841 79.1333 252.684 73.2279 260.097 68.9559C267.51 64.5582 275.929 62.3594 285.352 62.3594C298.545 62.3594 309.037 67.0712 316.827 76.4947V64.621H340.198V162.061C340.198 170.982 338.062 178.961 333.789 185.997C329.517 193.033 323.612 198.562 316.073 202.582C308.534 206.603 299.865 208.613 290.064 208.613ZM288.933 140.198C296.723 140.198 303.069 137.622 307.969 132.471C312.995 127.319 315.508 120.723 315.508 112.681C315.508 104.64 312.995 98.0433 307.969 92.8918C303.069 87.6146 296.723 84.976 288.933 84.976C283.782 84.976 279.133 86.1696 274.986 88.5569C270.84 90.9442 267.573 94.2739 265.186 98.5459C262.924 102.692 261.793 107.404 261.793 112.681C261.793 120.597 264.306 127.194 269.332 132.471C274.484 137.622 281.017 140.198 288.933 140.198Z" fill="white"/>
<path d="M413.012 208.613C401.453 208.613 391.275 205.849 382.48 200.321C373.81 194.918 367.842 187.693 364.575 178.646L387.569 169.977C389.076 174.751 392.029 178.584 396.427 181.473C400.95 184.489 406.479 185.997 413.012 185.997C420.426 185.997 426.52 183.861 431.294 179.589C436.069 175.442 438.456 169.6 438.456 162.061V150.941C431.168 158.983 421.305 163.003 408.866 163.003C399.317 163.003 390.773 160.804 383.234 156.407C375.695 152.009 369.79 145.978 365.518 138.313C361.245 130.649 359.109 122.042 359.109 112.493C359.109 102.818 361.245 94.2111 365.518 86.6722C369.79 79.1333 375.632 73.2279 383.045 68.9559C390.459 64.5582 398.877 62.3594 408.301 62.3594C421.494 62.3594 431.985 67.0712 439.775 76.4947V64.621H463.146V162.061C463.146 170.982 461.01 178.961 456.738 185.997C452.466 193.033 446.56 198.562 439.021 202.582C431.483 206.603 422.813 208.613 413.012 208.613ZM411.882 140.198C419.672 140.198 426.017 137.622 430.917 132.471C435.943 127.319 438.456 120.723 438.456 112.681C438.456 104.64 435.943 98.0433 430.917 92.8918C426.017 87.6146 419.672 84.976 411.882 84.976C406.73 84.976 402.081 86.1696 397.935 88.5569C393.788 90.9442 390.521 94.2739 388.134 98.5459C385.872 102.692 384.742 107.404 384.742 112.681C384.742 120.597 387.255 127.194 392.281 132.471C397.432 137.622 403.966 140.198 411.882 140.198Z" fill="white"/>
<path d="M534.83 169.411C524.275 169.411 515.04 167.024 507.125 162.249C499.209 157.475 493.052 151.004 488.654 142.837C484.257 134.67 482.058 125.623 482.058 115.697C482.058 105.394 484.257 96.2843 488.654 88.3685C493.178 80.327 499.272 73.9818 506.936 69.3328C514.726 64.6838 523.396 62.3594 532.945 62.3594C543.625 62.3594 552.672 64.6838 560.085 69.3328C567.498 73.8561 573.152 79.8872 577.048 87.4261C580.943 94.965 582.89 103.321 582.89 112.493C582.89 114.378 582.764 116.262 582.513 118.147C582.388 119.906 582.073 121.477 581.571 122.859H507.69C508.444 130.398 511.334 136.429 516.36 140.952C521.386 145.475 527.605 147.737 535.018 147.737C540.672 147.737 545.447 146.543 549.342 144.156C553.363 141.643 556.504 138.439 558.766 134.544L578.744 144.345C575.603 151.632 570.074 157.663 562.158 162.438C554.368 167.087 545.259 169.411 534.83 169.411ZM532.945 82.7143C526.788 82.7143 521.448 84.599 516.925 88.3685C512.527 92.0122 509.637 97.2266 508.255 104.012H556.504C556.001 97.7292 553.551 92.6405 549.154 88.7454C544.882 84.7247 539.479 82.7143 532.945 82.7143Z" fill="white"/>
<path d="M601.606 167.15V64.621H624.788V79.1334C627.427 73.2279 631.134 69.1443 635.908 66.8827C640.683 64.621 646.211 63.4902 652.494 63.4902H658.525V85.3529H649.667C642.756 85.3529 637.102 87.5517 632.704 91.9494C628.432 96.2214 626.296 102.253 626.296 110.043V167.15H601.606Z" fill="white"/>
<path d="M707.67 167.15V26.7382H733.302V144.533H793.425V167.15H707.67Z" fill="white"/>
<path d="M839.029 169.411C828.349 169.411 819.805 166.773 813.397 161.495C806.989 156.218 803.785 149.056 803.785 140.01C803.785 131.466 806.675 124.367 812.454 118.712C818.234 113.058 827.155 109.226 839.217 107.216L869.75 102.315V98.9229C869.75 94.5252 867.991 90.8814 864.473 87.9915C861.08 84.976 856.557 83.4682 850.903 83.4682C845.5 83.4682 840.788 84.9131 836.767 87.803C832.747 90.5673 829.794 94.2739 827.909 98.9229L807.743 89.1223C810.758 81.0809 816.287 74.61 824.328 69.7098C832.37 64.8095 841.542 62.3594 851.845 62.3594C860.263 62.3594 867.614 63.93 873.896 67.0712C880.304 70.0867 885.33 74.3587 888.974 79.8872C892.618 85.4157 894.44 91.7609 894.44 98.9229V167.15H871.069V156.218C863.028 165.014 852.348 169.411 839.029 169.411ZM829.417 139.067C829.417 142.585 830.736 145.413 833.375 147.549C836.013 149.559 839.406 150.564 843.552 150.564C851.342 150.564 857.625 148.114 862.399 143.214C867.3 138.313 869.75 132.345 869.75 125.309V121.163L843.929 125.497C834.254 127.382 829.417 131.905 829.417 139.067Z" fill="white"/>
<path d="M973.236 169.411C966.576 169.411 960.357 168.218 954.577 165.83C948.923 163.443 944.211 160.051 940.441 155.653V167.15H917.259V24.4766H941.949V74.987C949.614 66.5686 960.105 62.3594 973.424 62.3594C983.225 62.3594 992.02 64.7467 999.81 69.5213C1007.6 74.1703 1013.76 80.5783 1018.28 88.7454C1022.8 96.7869 1025.07 105.833 1025.07 115.885C1025.07 125.937 1022.8 135.047 1018.28 143.214C1013.76 151.255 1007.6 157.663 999.81 162.438C992.02 167.087 983.162 169.411 973.236 169.411ZM970.409 146.795C976.063 146.795 981.026 145.475 985.298 142.837C989.695 140.198 993.151 136.554 995.664 131.905C998.177 127.131 999.433 121.791 999.433 115.885C999.433 109.98 998.177 104.703 995.664 100.054C993.151 95.4047 989.695 91.761 985.298 89.1223C981.026 86.3581 976.063 84.976 970.409 84.976C965.006 84.976 960.105 86.2953 955.708 88.9339C951.436 91.5725 948.043 95.2163 945.53 99.8652C943.143 104.514 941.949 109.854 941.949 115.885C941.949 121.916 943.143 127.256 945.53 131.905C948.043 136.554 951.436 140.198 955.708 142.837C960.105 145.475 965.006 146.795 970.409 146.795Z" fill="white"/>
<path d="M1082.9 169.411C1071.97 169.411 1062.42 166.773 1054.25 161.495C1046.21 156.218 1040.68 149.182 1037.67 140.387L1056.14 131.528C1058.9 137.308 1062.61 141.832 1067.26 145.098C1071.91 148.365 1077.12 149.999 1082.9 149.999C1087.3 149.999 1090.82 149.056 1093.46 147.172C1096.22 145.161 1097.6 142.46 1097.6 139.067C1097.6 136.177 1096.41 133.916 1094.02 132.282C1091.76 130.523 1089 129.204 1085.73 128.324L1068.96 123.613C1060.29 121.1 1053.69 117.267 1049.17 112.116C1044.77 106.964 1042.57 100.87 1042.57 93.8341C1042.57 87.5518 1044.14 82.0861 1047.28 77.4371C1050.55 72.6625 1055.01 68.9559 1060.66 66.3173C1066.44 63.6787 1073.04 62.3594 1080.45 62.3594C1090.13 62.3594 1098.67 64.7467 1106.08 69.5213C1113.5 74.1703 1118.77 80.6411 1121.92 88.9339L1103.07 97.792C1101.44 93.1431 1098.48 89.4365 1094.21 86.6722C1090.06 83.908 1085.42 82.5258 1080.26 82.5258C1076.12 82.5258 1072.85 83.4682 1070.46 85.3529C1068.08 87.2376 1066.88 89.6878 1066.88 92.7033C1066.88 95.5932 1068.01 97.8549 1070.27 99.4883C1072.54 101.122 1075.43 102.441 1078.94 103.446L1095.34 108.346C1103.89 110.734 1110.42 114.503 1114.94 119.655C1119.47 124.806 1121.73 130.963 1121.73 138.125C1121.73 144.282 1120.09 149.747 1116.83 154.522C1113.56 159.171 1109.04 162.815 1103.26 165.453C1097.48 168.092 1090.69 169.411 1082.9 169.411Z" fill="white"/>
</svg>
