<svg width="32" height="33" viewBox="0 0 32 33" fill="none" xmlns="http://www.w3.org/2000/svg">
<path d="M5.98141 13.8953H25.9639C26.2633 13.8968 26.5592 13.8311 26.8297 13.703C27.1003 13.5749 27.3387 13.3877 27.5273 13.1552C27.7159 12.9227 27.8499 12.6508 27.9194 12.3596C27.9889 12.0685 27.9922 11.7654 27.9289 11.4728C27.0002 7.08276 21.9727 3.89526 15.9727 3.89526C9.97266 3.89526 4.94516 7.08276 4.01641 11.4728C3.95316 11.7654 3.95641 12.0685 4.02592 12.3596C4.09543 12.6508 4.22942 12.9227 4.41801 13.1552C4.6066 13.3877 4.84498 13.5749 5.11556 13.703C5.38615 13.8311 5.68204 13.8968 5.98141 13.8953ZM15.9727 5.89526C20.9502 5.89526 25.2489 8.47151 25.9639 11.8953H5.98141L5.97266 11.8865C6.69641 8.47151 10.9952 5.89526 15.9727 5.89526ZM28.6302 19.9553L23.4889 21.8303L18.8477 19.9665C18.6093 19.8712 18.3435 19.8712 18.1052 19.9665L13.4802 21.8178L8.84766 19.9665C8.6196 19.8754 8.36598 19.8714 8.13516 19.9553L2.63516 21.9553C2.4027 22.0576 2.21789 22.2445 2.11823 22.4781C2.01857 22.7117 2.01153 22.9745 2.09854 23.2131C2.18556 23.4517 2.3601 23.6483 2.58674 23.7629C2.81339 23.8775 3.07515 23.9016 3.31891 23.8303L4.97266 23.2315V23.8953C4.97266 25.2213 5.49944 26.4931 6.43712 27.4308C7.3748 28.3685 8.64657 28.8953 9.97266 28.8953H21.9727C23.2987 28.8953 24.5705 28.3685 25.5082 27.4308C26.4459 26.4931 26.9727 25.2213 26.9727 23.8953V22.6865L29.3139 21.8353C29.4452 21.7968 29.5672 21.7319 29.6724 21.6444C29.7776 21.557 29.8637 21.4489 29.9254 21.3268C29.9871 21.2047 30.0232 21.0713 30.0313 20.9347C30.0394 20.7982 30.0194 20.6614 29.9725 20.5329C29.9256 20.4044 29.8529 20.2869 29.7588 20.1876C29.6647 20.0883 29.5512 20.0094 29.4254 19.9557C29.2996 19.902 29.1641 19.8748 29.0273 19.8755C28.8905 19.8763 28.7554 19.9052 28.6302 19.9603V19.9553ZM24.9727 23.8953C24.9727 24.6909 24.6566 25.454 24.094 26.0166C23.5314 26.5792 22.7683 26.8953 21.9727 26.8953H9.97266C9.17701 26.8953 8.41395 26.5792 7.85134 26.0166C7.28873 25.454 6.97266 24.6909 6.97266 23.8953V22.5053L8.45641 21.9653L13.0977 23.824C13.336 23.9193 13.6018 23.9193 13.8402 23.824L18.4652 21.9728L23.0902 23.824C23.3182 23.9151 23.5718 23.9191 23.8027 23.8353L24.9614 23.414L24.9727 23.8953ZM1.97266 16.8953C1.97266 16.63 2.07801 16.3757 2.26555 16.1882C2.45309 16.0006 2.70744 15.8953 2.97266 15.8953H28.9727C29.2379 15.8953 29.4922 16.0006 29.6798 16.1882C29.8673 16.3757 29.9727 16.63 29.9727 16.8953C29.9727 17.1605 29.8673 17.4148 29.6798 17.6024C29.4922 17.7899 29.2379 17.8953 28.9727 17.8953H2.97266C2.70744 17.8953 2.45309 17.7899 2.26555 17.6024C2.07801 17.4148 1.97266 17.1605 1.97266 16.8953Z" fill="white"/>
</svg>
