<svg width="90" height="32" viewBox="0 0 90 32" fill="none" xmlns="http://www.w3.org/2000/svg">
<g clip-path="url(#clip0_719_9249)">
<path d="M7.44868 19.6678L6.8651 19.4694L0.507111 17.2569L10.1362 12.084C11.5798 12.6028 13.8681 13.32 14.7896 13.6252C14.8049 13.6252 14.8356 13.6404 14.851 13.6404C14.8971 13.6557 14.9431 13.6709 14.9738 13.6862C15.0046 13.7015 15.0506 13.7015 15.066 13.7167L15.9874 14.0219L16.4789 14.1898C17.1546 14.4186 17.6 15.029 17.6 15.7309V21.7888C17.6 22.8112 17.0164 23.742 16.0949 24.1998L1.09069 31.6158C0.614613 31.8599 0.0463867 31.5089 0.0463867 30.9749V23.7878C0.0463867 23.5131 0.199961 23.269 0.445681 23.1469L7.44868 19.6678Z" fill="url(#paint0_linear_719_9249)"/>
<path d="M0.507331 17.2571L10.1365 12.0842L17.1855 8.60511C17.4313 8.48304 17.5848 8.23889 17.5848 7.96422V0.716102C17.5848 0.18203 17.0166 -0.168932 16.5405 0.0752155L1.53628 7.53697C0.614834 7.99474 0.03125 8.92555 0.03125 9.94792V16.5704C0.03125 16.8756 0.230897 17.1503 0.507331 17.2571Z" fill="url(#paint1_linear_719_9249)"/>
<path d="M26.7686 19.3945L27.69 17.9754C28.335 18.6315 29.6097 19.2419 30.7922 19.2419C31.9901 19.2419 32.6197 18.7536 32.6197 18.0364C32.6197 16.2359 27.0603 17.5329 27.0603 14.008C27.0603 12.5126 28.3504 11.2461 30.6847 11.2461C32.2512 11.2461 33.4337 11.7954 34.2476 12.5126L33.403 13.9165C32.8501 13.3061 31.8365 12.8178 30.6847 12.8178C29.6404 12.8178 28.9954 13.3061 28.9954 13.947C28.9954 15.5492 34.5548 14.3437 34.5548 17.9754C34.5548 19.6081 33.2033 20.8289 30.7308 20.8289C29.1336 20.8289 27.7207 20.3253 26.7686 19.3945Z" fill="#F1F2F2"/>
<path d="M35.9829 16.0219C35.9829 13.2599 37.9487 11.2305 40.7284 11.2305C42.5405 11.2305 43.6002 11.9934 44.2452 12.8632L42.9245 14.0534C42.4177 13.3362 41.7112 13.0005 40.8052 13.0005C39.1465 13.0005 38.0255 14.2518 38.0255 16.0219C38.0255 17.7919 39.1465 19.0737 40.8052 19.0737C41.6959 19.0737 42.4023 18.6922 42.9245 17.975L44.2452 19.211C43.6002 20.0655 42.5252 20.8438 40.7284 20.8438C37.9487 20.8285 35.9829 18.7838 35.9829 16.0219Z" fill="#F1F2F2"/>
<path d="M51.6478 20.5996V19.5925C50.9567 20.386 49.8817 20.8285 48.6531 20.8285C47.1634 20.8285 45.4741 19.8061 45.4741 17.8072C45.4741 15.6862 47.1481 14.8164 48.6531 14.8164C49.9124 14.8164 50.9567 15.2131 51.6478 15.9913V14.6333C51.6478 13.5804 50.7571 12.9242 49.4978 12.9242C48.4688 12.9242 47.5627 13.3057 46.7795 14.0992L45.9348 12.7106C46.9945 11.6882 48.3306 11.2305 49.8049 11.2305C51.8628 11.2305 53.6443 12.085 53.6443 14.5265V20.5996H51.6478ZM51.6478 18.5244V17.1205C51.1717 16.4949 50.3117 16.1744 49.4517 16.1744C48.3306 16.1744 47.4706 16.8306 47.4706 17.8224C47.4706 18.8296 48.3306 19.4704 49.4517 19.4704C50.3271 19.4704 51.1717 19.15 51.6478 18.5244Z" fill="#F1F2F2"/>
<path d="M56.2397 20.5998V7.98047H58.2362V20.5998H56.2397Z" fill="#F1F2F2"/>
<path d="M66.4676 20.5996V19.5925C65.7766 20.386 64.7015 20.8285 63.4729 20.8285C61.9833 20.8285 60.2939 19.8061 60.2939 17.8072C60.2939 15.6862 61.9679 14.8164 63.4729 14.8164C64.7323 14.8164 65.7766 15.2131 66.4676 15.9913V14.6333C66.4676 13.5804 65.5769 12.9242 64.3176 12.9242C63.2887 12.9242 62.3826 13.3057 61.5993 14.0992L60.7547 12.7106C61.8143 11.6882 63.1504 11.2305 64.6248 11.2305C66.6827 11.2305 68.4641 12.085 68.4641 14.5265V20.5996H66.4676ZM66.4676 18.5244V17.1205C65.9916 16.4949 65.1315 16.1744 64.2715 16.1744C63.1504 16.1744 62.2904 16.8306 62.2904 17.8224C62.2904 18.8296 63.1504 19.4704 64.2715 19.4704C65.1315 19.4704 65.9916 19.15 66.4676 18.5244Z" fill="#F1F2F2"/>
<path d="M71.0596 20.5996V11.4594H73.056V12.7869C73.7625 11.9171 74.8682 11.2305 76.0507 11.2305V13.1989C75.8818 13.1684 75.6822 13.1379 75.4364 13.1379C74.5764 13.1379 73.4553 13.7025 73.056 14.3739V20.5996H71.0596Z" fill="#F1F2F2"/>
<path d="M77.4331 9.10904C77.4331 8.42238 77.986 7.87305 78.6771 7.87305C79.3681 7.87305 79.921 8.42238 79.921 9.10904C79.921 9.79571 79.3681 10.345 78.6771 10.345C77.986 10.345 77.4331 9.79571 77.4331 9.10904ZM77.6635 20.5992V11.459H79.6599V20.5992H77.6635Z" fill="#F1F2F2"/>
<path d="M81.7021 16.0219C81.7021 13.2599 83.6679 11.2305 86.4476 11.2305C88.2598 11.2305 89.3194 11.9934 89.9645 12.8632L88.6437 14.0534C88.1369 13.3362 87.4305 13.0005 86.5244 13.0005C84.8658 13.0005 83.7447 14.2518 83.7447 16.0219C83.7447 17.7919 84.8658 19.0737 86.5244 19.0737C87.4151 19.0737 88.1216 18.6922 88.6437 17.975L89.9645 19.211C89.3194 20.0655 88.2444 20.8438 86.4476 20.8438C83.6679 20.8285 81.7021 18.7838 81.7021 16.0219Z" fill="#F1F2F2"/>
</g>
<defs>
<linearGradient id="paint0_linear_719_9249" x1="0.0478457" y1="21.8911" x2="17.6089" y2="21.8911" gradientUnits="userSpaceOnUse">
<stop stop-color="#141472"/>
<stop offset="1" stop-color="#271CEB"/>
</linearGradient>
<linearGradient id="paint1_linear_719_9249" x1="6.33228" y1="18.8385" x2="10.4801" y2="1.8844" gradientUnits="userSpaceOnUse">
<stop offset="0.00581424" stop-color="#2AA0D3"/>
<stop offset="0.6203" stop-color="#5AC8F9"/>
</linearGradient>
<clipPath id="clip0_719_9249">
<rect width="89.9333" height="31.6934" fill="white" transform="translate(0.03125)"/>
</clipPath>
</defs>
</svg>
