<svg width="1299" height="348" viewBox="0 0 1299 348" fill="none" xmlns="http://www.w3.org/2000/svg">
<path d="M545.794 129.412V205.704C545.794 233.274 560.916 248.723 588.42 248.723C591.515 248.723 596.397 248.366 601.636 247.534V228.402C597.469 228.996 593.897 229.234 591.396 229.234C567.94 229.234 567.94 212.359 567.94 205.704V129.412H601.04V107.19H567.94V62.2698H545.794V107.19H518.647V129.412H545.794Z" fill="#222222"/>
<path fill-rule="evenodd" clip-rule="evenodd" d="M664.026 165.181C635.689 171.599 618.781 186.215 618.781 207.13C618.781 232.68 639.022 250.268 668.908 250.149C685.22 250.149 701.055 242.662 710.819 230.541V247.178H732.965V152.347C732.965 122.282 709.866 104.1 677.361 104.1C642.832 104.932 623.544 121.212 623.544 149.257L647 149.02C647 133.809 657.597 126.56 677.48 126.203C696.412 126.441 710.938 135.473 710.938 152.347V154.367L664.026 165.181ZM710.938 174.451V185.027C710.938 209.982 693.435 228.402 669.027 228.521C652.596 228.521 642.237 220.202 642.237 207.487C642.237 196.316 653.191 187.523 669.622 183.839L710.938 174.451Z" fill="#222222"/>
<path fill-rule="evenodd" clip-rule="evenodd" d="M764.993 267.142L785.115 256.091C790.95 269.163 804.404 281.997 825.836 281.997C849.768 281.997 870.247 266.073 870.842 240.048V222.104C860.245 233.512 843.814 240.286 825.598 240.286C787.378 240.286 757.016 209.864 757.016 172.074C757.016 133.69 786.544 104.219 825.598 104.219C844.41 104.219 860.722 111.587 870.842 123.232V107.308H892.988V240.048C892.988 276.293 865.246 304.1 826.312 304.1C797.498 304.1 774.757 288.057 764.993 267.142ZM870.842 172.074C870.842 145.574 851.792 126.203 825.359 126.203C799.76 126.203 780.472 144.266 780.472 172.074C780.472 199.287 798.808 218.063 825.598 218.063C852.744 218.063 870.842 198.337 870.842 172.074Z" fill="#222222"/>
<path fill-rule="evenodd" clip-rule="evenodd" d="M938.352 256.091L918.23 267.142C927.993 288.057 950.735 304.1 979.548 304.1C1018.48 304.1 1046.22 276.293 1046.22 240.048V107.308H1024.08V123.232C1013.96 111.587 997.646 104.219 978.834 104.219C939.781 104.219 910.252 133.69 910.252 172.074C910.252 209.864 940.614 240.286 978.834 240.286C997.051 240.286 1013.48 233.512 1024.08 222.104V240.048C1023.48 266.073 1003 281.997 979.072 281.997C957.64 281.997 944.186 269.163 938.352 256.091ZM978.596 126.203C1005.03 126.203 1024.08 145.574 1024.08 172.074C1024.08 198.337 1005.98 218.063 978.834 218.063C952.044 218.063 933.708 199.287 933.708 172.074C933.708 144.266 952.997 126.203 978.596 126.203Z" fill="#222222"/>
<path fill-rule="evenodd" clip-rule="evenodd" d="M1063.49 177.184C1063.49 134.641 1092.78 103.625 1133.26 103.625C1173.74 103.625 1203.15 134.76 1203.15 177.184L1203.03 180.155V185.027H1088.02C1091.35 210.22 1109.09 228.164 1133.26 228.164C1150.53 228.164 1164.69 219.014 1173.03 204.041L1193.27 216.4C1181.01 237.552 1159.46 250.624 1133.26 250.624C1092.78 250.624 1063.49 219.489 1063.49 177.184ZM1177.67 164.112C1173.15 141.295 1156 125.966 1133.26 125.966C1110.64 125.966 1093.49 141.295 1088.85 164.112H1177.67Z" fill="#222222"/>
<path d="M1227.08 247.178H1249.23V162.211C1249.23 140.464 1262.69 126.203 1283.4 126.203C1286.86 126.203 1291.02 126.916 1295.67 127.986V105.407C1291.14 104.694 1286.86 104.338 1283.16 104.338C1269.71 104.338 1257.09 108.735 1249.23 115.389V107.308H1227.08V247.178Z" fill="#222222"/>
<path fill-rule="evenodd" clip-rule="evenodd" d="M220.275 72.1927C220.275 63.1684 227.605 55.8528 236.647 55.8528H357.664C366.706 55.8528 374.036 63.1684 374.036 72.1927C374.036 81.217 366.706 88.5326 357.664 88.5326H236.647C227.605 88.5326 220.275 81.217 220.275 72.1927Z" fill="#FF5451"/>
<path fill-rule="evenodd" clip-rule="evenodd" d="M236.647 55.8528C227.605 55.8528 220.276 63.1684 220.276 72.1927L220.275 330.659C220.275 339.683 227.605 346.999 236.647 346.999C245.688 346.999 253.018 339.683 253.018 330.659L253.019 72.1927C253.019 63.1684 245.689 55.8528 236.647 55.8528Z" fill="url(#paint0_linear_4538_13529)"/>
<path fill-rule="evenodd" clip-rule="evenodd" d="M153.766 72.1926C153.766 63.1683 146.436 55.8528 137.394 55.8528L16.3716 55.8532C7.32991 55.8532 0.000182414 63.1689 0.00021875 72.1932C0.000255086 81.2174 7.33003 88.533 16.3717 88.533L137.394 88.5326C146.436 88.5325 153.766 81.2169 153.766 72.1926Z" fill="#FF5451"/>
<path fill-rule="evenodd" clip-rule="evenodd" d="M137.823 55.8528C128.781 55.8528 121.451 63.1684 121.451 72.1927L121.451 330.659C121.451 339.683 128.781 346.999 137.822 346.999C146.864 346.999 154.194 339.683 154.194 330.659L154.194 72.1927C154.194 63.1684 146.865 55.8528 137.823 55.8528Z" fill="url(#paint1_linear_4538_13529)"/>
<path fill-rule="evenodd" clip-rule="evenodd" d="M2.38574 16.3399C2.38574 7.31562 9.71549 0 18.7572 0H355.318C364.36 0 371.69 7.31562 371.69 16.3399C371.69 25.3642 364.36 32.6798 355.318 32.6798H18.7572C9.71549 32.6798 2.38574 25.3642 2.38574 16.3399Z" fill="#FF5451"/>
<path fill-rule="evenodd" clip-rule="evenodd" d="M187.235 0C196.276 0 203.606 7.31562 203.606 16.3399V330.767C203.606 339.791 196.276 347.107 187.235 347.107C178.193 347.107 170.863 339.791 170.863 330.767V16.3399C170.863 7.31562 178.193 0 187.235 0Z" fill="url(#paint2_linear_4538_13529)"/>
<defs>
<linearGradient id="paint0_linear_4538_13529" x1="236.647" y1="55.8528" x2="236.647" y2="346.999" gradientUnits="userSpaceOnUse">
<stop stop-color="#FF5451"/>
<stop offset="0.05" stop-color="#FF5451"/>
<stop offset="0.59" stop-color="#FE895F"/>
<stop offset="0.99" stop-color="#FCB56B"/>
<stop offset="1" stop-color="#FCB56B"/>
</linearGradient>
<linearGradient id="paint1_linear_4538_13529" x1="137.823" y1="55.8528" x2="137.823" y2="346.999" gradientUnits="userSpaceOnUse">
<stop stop-color="#FF5451"/>
<stop offset="0.05" stop-color="#FF5451"/>
<stop offset="0.59" stop-color="#FE895F"/>
<stop offset="0.99" stop-color="#FCB56B"/>
<stop offset="1" stop-color="#FCB56B"/>
</linearGradient>
<linearGradient id="paint2_linear_4538_13529" x1="187.235" y1="-3.30074e-07" x2="187.235" y2="347.107" gradientUnits="userSpaceOnUse">
<stop stop-color="#FF5451"/>
<stop offset="0.05" stop-color="#FF5451"/>
<stop offset="0.59" stop-color="#FE895F"/>
<stop offset="0.99" stop-color="#FCB56B"/>
<stop offset="1" stop-color="#FCB56B"/>
</linearGradient>
</defs>
</svg>
