<svg width="100" height="27" viewBox="0 0 100 27" fill="none" xmlns="http://www.w3.org/2000/svg">
<path d="M42.0195 9.88596V15.7105C42.0195 17.8153 43.1836 18.9947 45.3009 18.9947C45.5392 18.9947 45.915 18.9675 46.3183 18.904V17.4433C45.9975 17.4887 45.7225 17.5068 45.5301 17.5068C43.7244 17.5068 43.7244 16.2185 43.7244 15.7105V9.88596H46.2725V8.18941H43.7244V4.76001H42.0195V8.18941H39.9297V9.88596H42.0195Z" fill="white"/>
<path fill-rule="evenodd" clip-rule="evenodd" d="M51.1213 12.6168C48.9398 13.1067 47.6382 14.2226 47.6382 15.8194C47.6382 17.7699 49.1964 19.1127 51.4971 19.1036C52.7528 19.1036 53.9719 18.532 54.7235 17.6066V18.8768H56.4283V11.6369C56.4283 9.34161 54.6501 7.95352 52.1478 7.95352C49.4897 8.01703 48.0049 9.25996 48.0049 11.4011L49.8105 11.3829C49.8105 10.2216 50.6263 9.66822 52.157 9.641C53.6144 9.65915 54.7326 10.3487 54.7326 11.6369V11.7912L51.1213 12.6168ZM54.7326 13.3244V14.1319C54.7326 16.0371 53.3852 17.4433 51.5062 17.4524C50.2413 17.4524 49.4439 16.8173 49.4439 15.8466C49.4439 14.9938 50.2872 14.3224 51.5521 14.0412L54.7326 13.3244Z" fill="white"/>
<path fill-rule="evenodd" clip-rule="evenodd" d="M58.894 20.401L60.443 19.5572C60.8921 20.5552 61.9279 21.535 63.5777 21.535C65.4201 21.535 66.9966 20.3193 67.0425 18.3324V16.9625C66.2267 17.8334 64.9618 18.3506 63.5594 18.3506C60.6172 18.3506 58.2798 16.028 58.2798 13.143C58.2798 10.2126 60.553 7.96259 63.5594 7.96259C65.0076 7.96259 66.2634 8.52509 67.0425 9.41419V8.19848H68.7473V18.3324C68.7473 21.0995 66.6117 23.2225 63.6144 23.2225C61.3963 23.2225 59.6456 21.9977 58.894 20.401ZM67.0425 13.143C67.0425 11.1198 65.5759 9.641 63.5411 9.641C61.5704 9.641 60.0855 11.02 60.0855 13.143C60.0855 15.2206 61.4971 16.654 63.5594 16.654C65.6492 16.654 67.0425 15.148 67.0425 13.143Z" fill="white"/>
<path fill-rule="evenodd" clip-rule="evenodd" d="M72.2395 19.5572L70.6905 20.401C71.4421 21.9977 73.1927 23.2225 75.4109 23.2225C78.4081 23.2225 80.5438 21.0995 80.5438 18.3324V8.19848H78.8389V9.41419C78.0598 8.52509 76.8041 7.96259 75.3559 7.96259C72.3495 7.96259 70.0763 10.2126 70.0763 13.143C70.0763 16.028 72.4136 18.3506 75.3559 18.3506C76.7583 18.3506 78.0232 17.8334 78.8389 16.9625V18.3324C78.7931 20.3193 77.2166 21.535 75.3742 21.535C73.7244 21.535 72.6886 20.5552 72.2395 19.5572ZM75.3376 9.641C77.3724 9.641 78.8389 11.1198 78.8389 13.143C78.8389 15.148 77.4457 16.654 75.3559 16.654C73.2936 16.654 71.882 15.2206 71.882 13.143C71.882 11.02 73.3669 9.641 75.3376 9.641Z" fill="white"/>
<path fill-rule="evenodd" clip-rule="evenodd" d="M81.8729 13.5331C81.8729 10.2851 84.1277 7.91723 87.2441 7.91723C90.3605 7.91723 92.6245 10.2942 92.6245 13.5331L92.6153 13.7599V14.1319H83.761C84.0177 16.0552 85.3834 17.4252 87.2441 17.4252C88.5731 17.4252 89.6639 16.7266 90.3055 15.5835L91.8637 16.527C90.9196 18.1419 89.2606 19.1399 87.2441 19.1399C84.1277 19.1399 81.8729 16.7629 81.8729 13.5331ZM90.663 12.5351C90.3147 10.7932 88.9948 9.62286 87.2441 9.62286C85.5026 9.62286 84.1827 10.7932 83.8252 12.5351H90.663Z" fill="white"/>
<path d="M94.4668 18.8768H96.1717V12.39C96.1717 10.7297 97.2074 9.641 98.8023 9.641C99.0681 9.641 99.3889 9.69544 99.7464 9.77709V8.05332C99.3981 7.99888 99.0681 7.97167 98.784 7.97167C97.7482 7.97167 96.7766 8.30735 96.1717 8.81541V8.19848H94.4668V18.8768Z" fill="white"/>
<path fill-rule="evenodd" clip-rule="evenodd" d="M16.957 5.51797C16.957 4.82902 17.5213 4.27051 18.2173 4.27051H27.5336C28.2296 4.27051 28.7939 4.82902 28.7939 5.51797C28.7939 6.20693 28.2296 6.76544 27.5336 6.76544H18.2173C17.5213 6.76544 16.957 6.20693 16.957 5.51797Z" fill="#FF5451"/>
<path fill-rule="evenodd" clip-rule="evenodd" d="M18.2163 4.27051C17.5202 4.27051 16.9559 4.82901 16.9559 5.51797L16.9559 25.2505C16.9559 25.9395 17.5202 26.498 18.2162 26.498C18.9123 26.498 19.4765 25.9395 19.4765 25.2505L19.4766 5.51797C19.4766 4.82902 18.9123 4.27051 18.2163 4.27051Z" fill="url(#paint0_linear_219_307)"/>
<path fill-rule="evenodd" clip-rule="evenodd" d="M11.8359 5.51797C11.8359 4.82901 11.2717 4.27051 10.5756 4.27051L1.25903 4.27054C0.562979 4.27054 -0.00128001 4.82905 -0.00127721 5.51801C-0.00127441 6.20697 0.562988 6.76547 1.25904 6.76547L10.5756 6.76544C11.2717 6.76544 11.8359 6.20692 11.8359 5.51797Z" fill="#FF5451"/>
<path fill-rule="evenodd" clip-rule="evenodd" d="M10.6108 4.27051C9.91473 4.27051 9.35047 4.82901 9.35047 5.51797L9.35044 25.2505C9.35044 25.9395 9.9147 26.498 10.6107 26.498C11.3068 26.498 11.8711 25.9395 11.8711 25.2505L11.8711 5.51797C11.8711 4.82902 11.3068 4.27051 10.6108 4.27051Z" fill="url(#paint1_linear_219_307)"/>
<path fill-rule="evenodd" clip-rule="evenodd" d="M0.183594 1.25393C0.183594 0.564979 0.747855 0.00646973 1.44391 0.00646973H27.3532C28.0492 0.00646973 28.6135 0.564979 28.6135 1.25393C28.6135 1.94289 28.0492 2.5014 27.3532 2.5014H1.44391C0.747855 2.5014 0.183594 1.94289 0.183594 1.25393Z" fill="#FF5451"/>
<path fill-rule="evenodd" clip-rule="evenodd" d="M14.4127 0.00646973C15.1087 0.00646973 15.673 0.564979 15.673 1.25393V25.2588C15.673 25.9477 15.1087 26.5063 14.4127 26.5063C13.7166 26.5063 13.1523 25.9477 13.1523 25.2588V1.25393C13.1523 0.564979 13.7166 0.00646973 14.4127 0.00646973Z" fill="url(#paint2_linear_219_307)"/>
<defs>
<linearGradient id="paint0_linear_219_307" x1="18.2162" y1="4.27051" x2="18.2162" y2="26.498" gradientUnits="userSpaceOnUse">
<stop stop-color="#FF5451"/>
<stop offset="0.05" stop-color="#FF5451"/>
<stop offset="0.59" stop-color="#FE895F"/>
<stop offset="0.99" stop-color="#FCB56B"/>
<stop offset="1" stop-color="#FCB56B"/>
</linearGradient>
<linearGradient id="paint1_linear_219_307" x1="10.6108" y1="4.27051" x2="10.6108" y2="26.498" gradientUnits="userSpaceOnUse">
<stop stop-color="#FF5451"/>
<stop offset="0.05" stop-color="#FF5451"/>
<stop offset="0.59" stop-color="#FE895F"/>
<stop offset="0.99" stop-color="#FCB56B"/>
<stop offset="1" stop-color="#FCB56B"/>
</linearGradient>
<linearGradient id="paint2_linear_219_307" x1="14.4127" y1="0.0064697" x2="14.4127" y2="26.5063" gradientUnits="userSpaceOnUse">
<stop stop-color="#FF5451"/>
<stop offset="0.05" stop-color="#FF5451"/>
<stop offset="0.59" stop-color="#FE895F"/>
<stop offset="0.99" stop-color="#FCB56B"/>
<stop offset="1" stop-color="#FCB56B"/>
</linearGradient>
</defs>
</svg>
