<svg width="32" height="33" viewBox="0 0 32 33" fill="none" xmlns="http://www.w3.org/2000/svg">
<path d="M25.7081 24.6877C25.801 24.7806 25.8747 24.8909 25.9249 25.0123C25.9752 25.1337 26.0011 25.2638 26.0011 25.3952C26.0011 25.5266 25.9752 25.6567 25.9249 25.7781C25.8747 25.8995 25.801 26.0098 25.7081 26.1027C25.6151 26.1956 25.5048 26.2693 25.3835 26.3196C25.2621 26.3699 25.132 26.3958 25.0006 26.3958C24.8692 26.3958 24.7391 26.3699 24.6177 26.3196C24.4963 26.2693 24.386 26.1956 24.2931 26.1027L16.0006 17.809L7.70806 26.1027C7.52042 26.2904 7.26592 26.3958 7.00056 26.3958C6.73519 26.3958 6.4807 26.2904 6.29306 26.1027C6.10542 25.9151 6 25.6606 6 25.3952C6 25.1298 6.10542 24.8754 6.29306 24.6877L14.5868 16.3952L6.29306 8.10271C6.10542 7.91507 6 7.66057 6 7.39521C6 7.12985 6.10542 6.87535 6.29306 6.68771C6.4807 6.50007 6.73519 6.39465 7.00056 6.39465C7.26592 6.39465 7.52042 6.50007 7.70806 6.68771L16.0006 14.9815L24.2931 6.68771C24.4807 6.50007 24.7352 6.39465 25.0006 6.39465C25.2659 6.39465 25.5204 6.50007 25.7081 6.68771C25.8957 6.87535 26.0011 7.12985 26.0011 7.39521C26.0011 7.66057 25.8957 7.91507 25.7081 8.10271L17.4143 16.3952L25.7081 24.6877Z" fill="#D6D6D6"/>
</svg>
